<svg width="157" height="61" viewBox="0 0 157 61" fill="none" xmlns="http://www.w3.org/2000/svg">
<path d="M57.5208 34L49.1389 20.8958L55.7028 12.75H59.7167L53.1528 20.8486L61.6528 34H57.5208ZM45.6208 34V12.75H49.0917V34H45.6208ZM69.9115 34.3778C68.3847 34.3778 67.0231 34.0472 65.8268 33.3861C64.6305 32.725 63.6939 31.8199 63.0171 30.6708C62.3559 29.5218 62.0254 28.2231 62.0254 26.775C62.0254 25.3898 62.3481 24.1463 62.9934 23.0444C63.6546 21.9426 64.536 21.069 65.6379 20.4236C66.7555 19.7782 67.9833 19.4556 69.3212 19.4556C70.6749 19.4556 71.8948 19.7704 72.9809 20.4C74.0828 21.0296 74.9564 21.8875 75.6018 22.9736C76.2472 24.044 76.5698 25.2639 76.5698 26.6333V27.8847H67.6212C67.2277 27.8847 66.8342 27.869 66.4407 27.8375C66.0471 27.7903 65.6536 27.7352 65.2601 27.6722C65.449 28.7583 65.9684 29.6634 66.8184 30.3875C67.6842 31.1116 68.7388 31.4736 69.9823 31.4736C70.8796 31.4736 71.6981 31.2847 72.4379 30.9069C73.1777 30.5134 73.7837 30.0097 74.2559 29.3958L75.0587 32.7014C74.3661 33.2523 73.5791 33.6694 72.6976 33.9528C71.8161 34.2361 70.8874 34.3778 69.9115 34.3778ZM65.1893 25.5472C66.0078 25.3898 66.8184 25.3111 67.6212 25.3111H71.2101C71.6036 25.3111 71.9814 25.3269 72.3434 25.3583C72.7212 25.3898 73.0833 25.4292 73.4296 25.4764C73.1934 24.5162 72.6976 23.737 71.9421 23.1389C71.2022 22.525 70.3208 22.2181 69.2976 22.2181C68.3059 22.2181 67.4323 22.5329 66.6768 23.1625C65.9212 23.7921 65.4254 24.587 65.1893 25.5472ZM79.4105 34V19.8333H82.4328V21.7458C82.9522 21.006 83.5976 20.4394 84.3689 20.0458C85.1559 19.6523 86.0059 19.4556 86.9189 19.4556C87.9263 19.4556 88.8629 19.6995 89.7286 20.1875C90.5943 20.6755 91.2948 21.3838 91.83 22.3125C92.3652 23.2412 92.6328 24.3667 92.6328 25.6889V34H89.3036V26.1375C89.3036 25.1931 89.0124 24.3509 88.43 23.6111C87.8633 22.8713 87.0605 22.5014 86.0217 22.5014C85.1717 22.5014 84.4082 22.8005 83.7314 23.3986C83.0703 23.9968 82.7397 24.8861 82.7397 26.0667V34H79.4105ZM100.888 34.7083L93.7809 19.8333H97.4406L99.967 25.1694C100.203 25.6574 100.431 26.1611 100.652 26.6806C100.872 27.1843 101.092 27.7903 101.313 28.4986C101.549 27.806 101.785 27.2157 102.021 26.7278C102.257 26.2398 102.485 25.7519 102.706 25.2639L105.468 19.2667L108.254 25.2639C108.475 25.7361 108.695 26.2162 108.916 26.7042C109.152 27.1921 109.38 27.7903 109.6 28.4986C109.821 27.7588 110.041 27.1449 110.261 26.6569C110.498 26.1532 110.726 25.6574 110.946 25.1694L113.496 19.8333H116.967L109.86 34.7083L106.791 28.8292C106.539 28.3412 106.295 27.8532 106.059 27.3653C105.838 26.8616 105.61 26.2949 105.374 25.6653C105.154 26.2949 104.925 26.8616 104.689 27.3653C104.453 27.8532 104.201 28.3412 103.934 28.8292L100.888 34.7083ZM125.427 34.3778C123.9 34.3778 122.539 34.0472 121.342 33.3861C120.146 32.725 119.21 31.8199 118.533 30.6708C117.872 29.5218 117.541 28.2231 117.541 26.775C117.541 25.3898 117.864 24.1463 118.509 23.0444C119.17 21.9426 120.052 21.069 121.154 20.4236C122.271 19.7782 123.499 19.4556 124.837 19.4556C126.191 19.4556 127.41 19.7704 128.497 20.4C129.598 21.0296 130.472 21.8875 131.117 22.9736C131.763 24.044 132.085 25.2639 132.085 26.6333V27.8847H123.137C122.743 27.8847 122.35 27.869 121.956 27.8375C121.563 27.7903 121.169 27.7352 120.776 27.6722C120.965 28.7583 121.484 29.6634 122.334 30.3875C123.2 31.1116 124.254 31.4736 125.498 31.4736C126.395 31.4736 127.214 31.2847 127.954 30.9069C128.693 30.5134 129.299 30.0097 129.772 29.3958L130.574 32.7014C129.882 33.2523 129.095 33.6694 128.213 33.9528C127.332 34.2361 126.403 34.3778 125.427 34.3778ZM120.705 25.5472C121.523 25.3898 122.334 25.3111 123.137 25.3111H126.726C127.119 25.3111 127.497 25.3269 127.859 25.3583C128.237 25.3898 128.599 25.4292 128.945 25.4764C128.709 24.5162 128.213 23.737 127.458 23.1389C126.718 22.525 125.836 22.2181 124.813 22.2181C123.822 22.2181 122.948 22.5329 122.192 23.1625C121.437 23.7921 120.941 24.587 120.705 25.5472ZM134.95 34V11.3333H138.279V34H134.95ZM142.155 34V11.3333H145.484V34H142.155Z" fill="black"/>
<path d="M44.232 43.2H45.086V53H44.232V43.2ZM47.4423 46H48.1843L48.2263 47.274C48.4223 46.8447 48.7116 46.5087 49.0943 46.266C49.4863 46.0233 49.9623 45.902 50.5223 45.902C51.0449 45.902 51.5069 46.0187 51.9083 46.252C52.3189 46.476 52.6363 46.8167 52.8603 47.274C53.0936 47.722 53.2103 48.296 53.2103 48.996V53H52.4123V49.08C52.4123 48.2867 52.2349 47.68 51.8803 47.26C51.5256 46.84 51.0309 46.63 50.3963 46.63C49.7243 46.63 49.1969 46.854 48.8143 47.302C48.4316 47.75 48.2403 48.4173 48.2403 49.304V53H47.4423V46ZM55.6389 50.956C55.7043 51.264 55.8116 51.5207 55.9609 51.726C56.1196 51.9313 56.3296 52.0853 56.5909 52.188C56.8523 52.2907 57.1649 52.342 57.5289 52.342C58.1076 52.342 58.5416 52.23 58.8309 52.006C59.1296 51.7727 59.2789 51.4833 59.2789 51.138C59.2789 50.8487 59.1903 50.62 59.0129 50.452C58.8449 50.284 58.6209 50.1487 58.3409 50.046C58.0609 49.9433 57.7576 49.8547 57.4309 49.78C57.2069 49.724 56.9549 49.6587 56.6749 49.584C56.3949 49.5093 56.1243 49.4067 55.8629 49.276C55.6109 49.136 55.4009 48.9587 55.2329 48.744C55.0743 48.52 54.9949 48.226 54.9949 47.862C54.9949 47.47 55.1023 47.1293 55.3169 46.84C55.5316 46.5413 55.8256 46.3127 56.1989 46.154C56.5816 45.986 57.0156 45.902 57.5009 45.902C58.0796 45.902 58.5929 46.028 59.0409 46.28C59.4889 46.532 59.7969 46.9333 59.9649 47.484L59.2229 47.736C59.1389 47.4373 58.9989 47.2133 58.8029 47.064C58.6163 46.9053 58.4063 46.798 58.1729 46.742C57.9396 46.686 57.7109 46.658 57.4869 46.658C56.9923 46.658 56.5956 46.7607 56.2969 46.966C55.9983 47.162 55.8489 47.4467 55.8489 47.82C55.8489 48.0347 55.9003 48.212 56.0029 48.352C56.1056 48.492 56.2409 48.604 56.4089 48.688C56.5863 48.772 56.7869 48.842 57.0109 48.898C57.2349 48.954 57.4683 49.01 57.7109 49.066C57.9816 49.1313 58.2569 49.2107 58.5369 49.304C58.8169 49.3973 59.0783 49.5187 59.3209 49.668C59.5636 49.8173 59.7596 50.0087 59.9089 50.242C60.0583 50.4753 60.1329 50.7693 60.1329 51.124C60.1329 51.5253 60.0209 51.8753 59.7969 52.174C59.5823 52.4727 59.2789 52.7013 58.8869 52.86C58.5043 53.0187 58.0516 53.098 57.5289 53.098C56.8196 53.098 56.2363 52.944 55.7789 52.636C55.3309 52.3187 55.0323 51.8427 54.8829 51.208L55.6389 50.956ZM67.5491 53H66.8071L66.7651 51.754C66.5691 52.1833 66.2798 52.5147 65.8971 52.748C65.5144 52.9813 65.0384 53.098 64.4691 53.098C63.9464 53.098 63.4798 52.9907 63.0691 52.776C62.6678 52.552 62.3551 52.216 62.1311 51.768C61.9071 51.3107 61.7951 50.7367 61.7951 50.046V46H62.5791V49.976C62.5791 50.7693 62.7518 51.3667 63.0971 51.768C63.4518 52.16 63.9511 52.356 64.5951 52.356C65.2578 52.356 65.7804 52.1413 66.1631 51.712C66.5551 51.2827 66.7511 50.6293 66.7511 49.752V46H67.5491V53ZM69.7684 46H70.5104L70.5524 47.246C70.7111 46.9567 70.9258 46.7047 71.1964 46.49C71.4671 46.2753 71.7751 46.1213 72.1204 46.028C72.4658 45.9347 72.8438 45.9253 73.2544 46V46.798C72.8531 46.714 72.4891 46.7187 72.1624 46.812C71.8358 46.896 71.5511 47.05 71.3084 47.274C71.0751 47.498 70.8931 47.778 70.7624 48.114C70.6318 48.45 70.5664 48.8327 70.5664 49.262V53H69.7684V46ZM79.253 53L79.197 51.516C79.001 52.02 78.693 52.412 78.273 52.692C77.8623 52.9627 77.3397 53.098 76.705 53.098C76.201 53.098 75.7717 53.0233 75.417 52.874C75.0623 52.7153 74.787 52.4913 74.591 52.202C74.4043 51.9127 74.311 51.5673 74.311 51.166C74.311 50.578 74.5303 50.102 74.969 49.738C75.4077 49.3647 76.061 49.136 76.929 49.052L79.197 48.8V48.212C79.197 47.7267 79.0337 47.3487 78.707 47.078C78.3897 46.798 77.9463 46.658 77.377 46.658C76.8357 46.658 76.383 46.784 76.019 47.036C75.6643 47.288 75.4263 47.6473 75.305 48.114L74.577 47.862C74.7543 47.2367 75.0857 46.756 75.571 46.42C76.0563 46.0747 76.663 45.902 77.391 45.902C78.2123 45.902 78.8517 46.1073 79.309 46.518C79.7663 46.9287 79.995 47.4933 79.995 48.212V53H79.253ZM79.197 49.486L76.915 49.752C76.3177 49.8173 75.8743 49.9667 75.585 50.2C75.305 50.424 75.165 50.732 75.165 51.124C75.165 51.516 75.3003 51.824 75.571 52.048C75.851 52.272 76.2477 52.384 76.761 52.384C77.3023 52.384 77.7503 52.2767 78.105 52.062C78.469 51.838 78.7397 51.5347 78.917 51.152C79.1037 50.76 79.197 50.3213 79.197 49.836V49.486ZM82.1278 46H82.8698L82.9118 47.274C83.1078 46.8447 83.3971 46.5087 83.7798 46.266C84.1718 46.0233 84.6478 45.902 85.2078 45.902C85.7305 45.902 86.1925 46.0187 86.5938 46.252C87.0045 46.476 87.3218 46.8167 87.5458 47.274C87.7791 47.722 87.8958 48.296 87.8958 48.996V53H87.0978V49.08C87.0978 48.2867 86.9205 47.68 86.5658 47.26C86.2111 46.84 85.7165 46.63 85.0818 46.63C84.4098 46.63 83.8825 46.854 83.4998 47.302C83.1171 47.75 82.9258 48.4173 82.9258 49.304V53H82.1278V46ZM92.9565 53.098C92.2752 53.098 91.6778 52.9487 91.1645 52.65C90.6605 52.3513 90.2685 51.936 89.9885 51.404C89.7085 50.8627 89.5685 50.2373 89.5685 49.528C89.5685 48.8093 89.7085 48.1793 89.9885 47.638C90.2685 47.0873 90.6605 46.6627 91.1645 46.364C91.6778 46.056 92.2752 45.902 92.9565 45.902C93.6658 45.902 94.2865 46.07 94.8185 46.406C95.3598 46.742 95.7472 47.204 95.9805 47.792L95.2385 48.044C95.0892 47.6147 94.8092 47.2787 94.3985 47.036C93.9972 46.784 93.5258 46.658 92.9845 46.658C92.4712 46.658 92.0185 46.7747 91.6265 47.008C91.2438 47.2413 90.9452 47.5727 90.7305 48.002C90.5252 48.4313 90.4225 48.9353 90.4225 49.514C90.4225 50.3727 90.6512 51.0587 91.1085 51.572C91.5752 52.0853 92.1958 52.342 92.9705 52.342C93.4932 52.342 93.9552 52.2253 94.3565 51.992C94.7578 51.7493 95.0612 51.4133 95.2665 50.984L95.9945 51.236C95.7425 51.824 95.3505 52.2813 94.8185 52.608C94.2865 52.9347 93.6658 53.098 92.9565 53.098ZM100.652 53.098C99.9988 53.098 99.4201 52.944 98.9161 52.636C98.4214 52.3187 98.0341 51.8847 97.7541 51.334C97.4741 50.7833 97.3341 50.1487 97.3341 49.43C97.3341 48.7487 97.4741 48.142 97.7541 47.61C98.0434 47.078 98.4354 46.6627 98.9301 46.364C99.4248 46.056 99.9894 45.902 100.624 45.902C101.249 45.902 101.805 46.042 102.29 46.322C102.785 46.5927 103.167 46.9707 103.438 47.456C103.718 47.932 103.853 48.478 103.844 49.094C103.844 49.1873 103.839 49.29 103.83 49.402C103.83 49.5047 103.825 49.6167 103.816 49.738H98.2021C98.2114 50.2513 98.3234 50.704 98.5381 51.096C98.7528 51.488 99.0374 51.796 99.3921 52.02C99.7561 52.2347 100.167 52.342 100.624 52.342C101.203 52.342 101.697 52.2253 102.108 51.992C102.528 51.7493 102.831 51.4087 103.018 50.97L103.704 51.25C103.443 51.8473 103.046 52.3047 102.514 52.622C101.982 52.9393 101.361 53.098 100.652 53.098ZM102.976 49.038C102.985 48.5713 102.892 48.1607 102.696 47.806C102.5 47.4513 102.22 47.1713 101.856 46.966C101.501 46.7607 101.081 46.658 100.596 46.658C100.167 46.658 99.7794 46.7607 99.4341 46.966C99.0888 47.1713 98.8041 47.456 98.5801 47.82C98.3654 48.1747 98.2394 48.5807 98.2021 49.038H102.976ZM113.25 43.942H112.788L109.428 53H108.56L112.2 43.2H113.824L117.45 53H116.596L113.25 43.942ZM110.17 49.556H115.882V50.298H110.17V49.556ZM124.174 46H124.916V51.6C124.916 52.4867 124.725 53.2427 124.342 53.868C123.96 54.4933 123.404 54.9693 122.676 55.296C121.958 55.632 121.076 55.8 120.03 55.8L119.904 55.058C121.276 55.0487 122.322 54.75 123.04 54.162C123.759 53.574 124.118 52.72 124.118 51.6V51.348L124.188 51.376C123.992 51.8427 123.67 52.244 123.222 52.58C122.774 52.916 122.186 53.0887 121.458 53.098C120.805 53.098 120.236 52.9533 119.75 52.664C119.274 52.3653 118.901 51.9453 118.63 51.404C118.369 50.8627 118.238 50.228 118.238 49.5C118.238 48.772 118.369 48.142 118.63 47.61C118.901 47.0687 119.274 46.6487 119.75 46.35C120.236 46.0513 120.805 45.902 121.458 45.902C121.925 45.902 122.331 45.9767 122.676 46.126C123.031 46.2753 123.325 46.476 123.558 46.728C123.801 46.9707 123.988 47.2413 124.118 47.54L124.174 46ZM119.092 49.5C119.092 50.3773 119.316 51.0727 119.764 51.586C120.222 52.0993 120.842 52.356 121.626 52.356C122.102 52.356 122.527 52.2393 122.9 52.006C123.283 51.7727 123.582 51.4413 123.796 51.012C124.011 50.5827 124.118 50.0787 124.118 49.5C124.118 48.912 124.011 48.408 123.796 47.988C123.582 47.5587 123.283 47.2273 122.9 46.994C122.527 46.7607 122.102 46.644 121.626 46.644C120.852 46.644 120.236 46.9053 119.778 47.428C119.321 47.9413 119.092 48.632 119.092 49.5ZM130.006 53.098C129.352 53.098 128.774 52.944 128.27 52.636C127.775 52.3187 127.388 51.8847 127.108 51.334C126.828 50.7833 126.688 50.1487 126.688 49.43C126.688 48.7487 126.828 48.142 127.108 47.61C127.397 47.078 127.789 46.6627 128.284 46.364C128.778 46.056 129.343 45.902 129.978 45.902C130.603 45.902 131.158 46.042 131.644 46.322C132.138 46.5927 132.521 46.9707 132.792 47.456C133.072 47.932 133.207 48.478 133.198 49.094C133.198 49.1873 133.193 49.29 133.184 49.402C133.184 49.5047 133.179 49.6167 133.17 49.738H127.556C127.565 50.2513 127.677 50.704 127.892 51.096C128.106 51.488 128.391 51.796 128.746 52.02C129.11 52.2347 129.52 52.342 129.978 52.342C130.556 52.342 131.051 52.2253 131.462 51.992C131.882 51.7493 132.185 51.4087 132.372 50.97L133.058 51.25C132.796 51.8473 132.4 52.3047 131.868 52.622C131.336 52.9393 130.715 53.098 130.006 53.098ZM132.33 49.038C132.339 48.5713 132.246 48.1607 132.05 47.806C131.854 47.4513 131.574 47.1713 131.21 46.966C130.855 46.7607 130.435 46.658 129.95 46.658C129.52 46.658 129.133 46.7607 128.788 46.966C128.442 47.1713 128.158 47.456 127.934 47.82C127.719 48.1747 127.593 48.5807 127.556 49.038H132.33ZM134.983 46H135.725L135.767 47.274C135.963 46.8447 136.253 46.5087 136.635 46.266C137.027 46.0233 137.503 45.902 138.063 45.902C138.586 45.902 139.048 46.0187 139.449 46.252C139.86 46.476 140.177 46.8167 140.401 47.274C140.635 47.722 140.751 48.296 140.751 48.996V53H139.953V49.08C139.953 48.2867 139.776 47.68 139.421 47.26C139.067 46.84 138.572 46.63 137.937 46.63C137.265 46.63 136.738 46.854 136.355 47.302C135.973 47.75 135.781 48.4173 135.781 49.304V53H134.983V46ZM145.812 53.098C145.131 53.098 144.533 52.9487 144.02 52.65C143.516 52.3513 143.124 51.936 142.844 51.404C142.564 50.8627 142.424 50.2373 142.424 49.528C142.424 48.8093 142.564 48.1793 142.844 47.638C143.124 47.0873 143.516 46.6627 144.02 46.364C144.533 46.056 145.131 45.902 145.812 45.902C146.521 45.902 147.142 46.07 147.674 46.406C148.215 46.742 148.603 47.204 148.836 47.792L148.094 48.044C147.945 47.6147 147.665 47.2787 147.254 47.036C146.853 46.784 146.381 46.658 145.84 46.658C145.327 46.658 144.874 46.7747 144.482 47.008C144.099 47.2413 143.801 47.5727 143.586 48.002C143.381 48.4313 143.278 48.9353 143.278 49.514C143.278 50.3727 143.507 51.0587 143.964 51.572C144.431 52.0853 145.051 52.342 145.826 52.342C146.349 52.342 146.811 52.2253 147.212 51.992C147.613 51.7493 147.917 51.4133 148.122 50.984L148.85 51.236C148.598 51.824 148.206 52.2813 147.674 52.608C147.142 52.9347 146.521 53.098 145.812 53.098ZM155.412 46H156.238L152.304 55.8H151.52L152.682 52.93L149.798 46H150.666L153.102 51.992L155.412 46Z" fill="black"/>
<path d="M30.7724 10C31.877 10 32.7724 10.8954 32.7724 12V43.2491C32.7724 44.3536 31.877 45.2491 30.7724 45.2491H24.5247C23.4201 45.2491 22.5247 44.3536 22.5247 43.2491V12C22.5247 10.8954 23.4201 10 24.5247 10H30.7724Z" fill="#2EE556" fill-opacity="0.6"/>
<g filter="url(#filter0_d_11_186)">
<rect x="23.7072" y="14.5483" width="35.2491" height="10.2477" rx="2" transform="rotate(90 23.7072 14.5483)" fill="#7BD165" fill-opacity="0.8" shape-rendering="crispEdges"/>
</g>
<g filter="url(#filter1_d_11_186)">
<rect x="13.4594" y="18.528" width="34.112" height="9.45942" rx="2" transform="rotate(90 13.4594 18.528)" fill="#8DDDD8"/>
</g>
<defs>
<filter id="filter0_d_11_186" x="9.45947" y="14.5483" width="18.2477" height="43.2491" filterUnits="userSpaceOnUse" color-interpolation-filters="sRGB">
<feFlood flood-opacity="0" result="BackgroundImageFix"/>
<feColorMatrix in="SourceAlpha" type="matrix" values="0 0 0 0 0 0 0 0 0 0 0 0 0 0 0 0 0 0 127 0" result="hardAlpha"/>
<feOffset dy="4"/>
<feGaussianBlur stdDeviation="2"/>
<feComposite in2="hardAlpha" operator="out"/>
<feColorMatrix type="matrix" values="0 0 0 0 0 0 0 0 0 0 0 0 0 0 0 0 0 0 0.25 0"/>
<feBlend mode="normal" in2="BackgroundImageFix" result="effect1_dropShadow_11_186"/>
<feBlend mode="normal" in="SourceGraphic" in2="effect1_dropShadow_11_186" result="shape"/>
</filter>
<filter id="filter1_d_11_186" x="0" y="18.528" width="17.4594" height="42.112" filterUnits="userSpaceOnUse" color-interpolation-filters="sRGB">
<feFlood flood-opacity="0" result="BackgroundImageFix"/>
<feColorMatrix in="SourceAlpha" type="matrix" values="0 0 0 0 0 0 0 0 0 0 0 0 0 0 0 0 0 0 127 0" result="hardAlpha"/>
<feOffset dy="4"/>
<feGaussianBlur stdDeviation="2"/>
<feComposite in2="hardAlpha" operator="out"/>
<feColorMatrix type="matrix" values="0 0 0 0 0 0 0 0 0 0 0 0 0 0 0 0 0 0 0.25 0"/>
<feBlend mode="normal" in2="BackgroundImageFix" result="effect1_dropShadow_11_186"/>
<feBlend mode="normal" in="SourceGraphic" in2="effect1_dropShadow_11_186" result="shape"/>
</filter>
</defs>
</svg>
